<svg xmlns="http://www.w3.org/2000/svg" xmlns:xlink="http://www.w3.org/1999/xlink" width="1080" zoomAndPan="magnify" viewBox="0 0 810 809.999993" height="1080" preserveAspectRatio="xMidYMid meet" version="1.0"><defs><g/></defs><g fill="#000000" fill-opacity="1"><g transform="translate(386.761371, 664.136092)"><g><path d="M -21.796875 69.578125 L -31.984375 68 L -22.25 5.609375 L -60.8125 -0.40625 L -59.4375 -9.265625 L -10.6875 -1.671875 Z M -21.796875 69.578125 "/></g></g></g><g fill="#000000" fill-opacity="1"><g transform="translate(332.957057, 656.565401)"><g><path d="M -64.46875 4.5625 C -64.195312 3.863281 -63.78125 2.953125 -63.21875 1.828125 L -21.765625 17.4375 C -20.648438 12.738281 -21.257812 8.382812 -23.59375 4.375 C -25.9375 0.375 -29.617188 -2.570312 -34.640625 -4.46875 C -40.742188 -6.757812 -46.4375 -6.550781 -51.71875 -3.84375 L -54.578125 -11.75 C -51.242188 -13.570312 -47.59375 -14.539062 -43.625 -14.65625 C -39.65625 -14.78125 -35.550781 -14.046875 -31.3125 -12.453125 C -25.90625 -10.421875 -21.53125 -7.507812 -18.1875 -3.71875 C -14.84375 0.0625 -12.78125 4.375 -12 9.21875 C -11.226562 14.070312 -11.785156 19.003906 -13.671875 24.015625 C -15.535156 28.960938 -18.328125 33.007812 -22.046875 36.15625 C -25.765625 39.3125 -29.984375 41.265625 -34.703125 42.015625 C -39.429688 42.773438 -44.238281 42.234375 -49.125 40.390625 C -54.007812 38.554688 -57.941406 35.804688 -60.921875 32.140625 C -63.910156 28.484375 -65.734375 24.257812 -66.390625 19.46875 C -67.046875 14.675781 -66.40625 9.707031 -64.46875 4.5625 Z M -46.1875 32.578125 C -41.75 34.253906 -37.523438 34.304688 -33.515625 32.734375 C -29.515625 31.160156 -26.4375 28.28125 -24.28125 24.09375 L -57.046875 11.765625 C -58.148438 16.265625 -57.722656 20.441406 -55.765625 24.296875 C -53.804688 28.148438 -50.613281 30.910156 -46.1875 32.578125 Z M -46.1875 32.578125 "/></g></g></g><g fill="#000000" fill-opacity="1"><g transform="translate(279.686421, 636.113068)"><g><path d="M -36.109375 -17.703125 C -34.234375 -18.015625 -32.210938 -17.90625 -30.046875 -17.375 C -27.878906 -16.851562 -25.820312 -16.019531 -23.875 -14.875 C -19.144531 -12.0625 -16.234375 -8.617188 -15.140625 -4.546875 C -14.046875 -0.472656 -14.898438 3.929688 -17.703125 8.671875 L -32.984375 34.453125 L -25.015625 39.1875 L -29.15625 46.1875 L -37.125 41.453125 L -43.21875 51.734375 L -51.734375 46.6875 L -45.640625 36.40625 L -59.109375 28.4375 L -54.96875 21.4375 L -41.5 29.40625 L -26.421875 3.96875 C -24.921875 1.425781 -24.398438 -0.894531 -24.859375 -3 C -25.328125 -5.113281 -26.738281 -6.867188 -29.09375 -8.265625 C -31.707031 -9.816406 -34.363281 -10.394531 -37.0625 -10 Z M -36.109375 -17.703125 "/></g></g></g><g fill="#000000" fill-opacity="1"><g transform="translate(246.363435, 615.940647)"><g><path d="M -48.34375 53.90625 L -55.265625 48.71875 L -38.0625 26.875 L -32.203125 31.25 Z M -48.34375 53.90625 "/></g></g></g><g fill="#000000" fill-opacity="1"><g transform="translate(231.623666, 606.381603)"><g><path d="M -17.65625 -17.75 C -14.4375 -14.664062 -11.75 -11.265625 -9.59375 -7.546875 C -7.445312 -3.828125 -6.171875 -0.488281 -5.765625 2.46875 L -14.15625 5.28125 C -14.707031 2.375 -15.867188 -0.632812 -17.640625 -3.75 C -19.421875 -6.863281 -21.578125 -9.628906 -24.109375 -12.046875 C -30.367188 -18.023438 -35.203125 -19.226562 -38.609375 -15.65625 C -39.753906 -14.457031 -40.234375 -13.109375 -40.046875 -11.609375 C -39.867188 -10.117188 -39.300781 -8.609375 -38.34375 -7.078125 C -37.394531 -5.546875 -35.9375 -3.457031 -33.96875 -0.8125 C -31.269531 2.707031 -29.222656 5.75 -27.828125 8.3125 C -26.429688 10.882812 -25.742188 13.628906 -25.765625 16.546875 C -25.796875 19.472656 -27.140625 22.328125 -29.796875 25.109375 C -33.210938 28.679688 -37.441406 30.117188 -42.484375 29.421875 C -47.523438 28.734375 -52.554688 25.992188 -57.578125 21.203125 C -60.210938 18.679688 -62.535156 15.84375 -64.546875 12.6875 C -66.566406 9.539062 -67.898438 6.613281 -68.546875 3.90625 L -60.09375 1.15625 C -58.851562 6.332031 -56.046875 11.003906 -51.671875 15.171875 C -48.648438 18.066406 -45.867188 19.773438 -43.328125 20.296875 C -40.796875 20.816406 -38.742188 20.253906 -37.171875 18.609375 C -35.941406 17.328125 -35.414062 15.890625 -35.59375 14.296875 C -35.769531 12.703125 -36.347656 11.101562 -37.328125 9.5 C -38.316406 7.894531 -39.789062 5.726562 -41.75 3 C -44.414062 -0.582031 -46.429688 -3.625 -47.796875 -6.125 C -49.160156 -8.625 -49.828125 -11.28125 -49.796875 -14.09375 C -49.765625 -16.90625 -48.46875 -19.65625 -45.90625 -22.34375 C -42.488281 -25.914062 -38.242188 -27.296875 -33.171875 -26.484375 C -28.097656 -25.679688 -22.925781 -22.769531 -17.65625 -17.75 Z M -17.65625 -17.75 "/></g></g></g><g fill="#000000" fill-opacity="1"><g transform="translate(197.920496, 573.516963)"><g/></g></g><g fill="#000000" fill-opacity="1"><g transform="translate(182.427108, 554.474944)"><g/></g></g><g fill="#000000" fill-opacity="1"><g transform="translate(168.13658, 537.364086)"><g><path d="M -16.65625 -39.71875 C -13.75 -33.125 -12.578125 -26.523438 -13.140625 -19.921875 C -13.710938 -13.328125 -15.890625 -7.390625 -19.671875 -2.109375 C -23.460938 3.171875 -28.566406 7.226562 -34.984375 10.0625 C -41.378906 12.894531 -47.804688 13.9375 -54.265625 13.1875 C -60.722656 12.4375 -66.585938 10.035156 -71.859375 5.984375 C -77.140625 1.941406 -81.238281 -3.375 -84.15625 -9.96875 C -86.4375 -15.125 -87.65625 -20.21875 -87.8125 -25.25 C -87.96875 -30.289062 -87.019531 -35.066406 -84.96875 -39.578125 L -76.328125 -36.09375 C -79.335938 -28.820312 -79.207031 -21.484375 -75.9375 -14.078125 C -73.769531 -9.179688 -70.710938 -5.238281 -66.765625 -2.25 C -62.828125 0.738281 -58.429688 2.492188 -53.578125 3.015625 C -48.734375 3.535156 -43.925781 2.738281 -39.15625 0.625 C -34.375 -1.488281 -30.546875 -4.507812 -27.671875 -8.4375 C -24.796875 -12.375 -23.128906 -16.804688 -22.671875 -21.734375 C -22.222656 -26.671875 -23.082031 -31.585938 -25.25 -36.484375 C -28.5 -43.828125 -33.875 -48.847656 -41.375 -51.546875 L -38.140625 -60.28125 C -33.410156 -58.769531 -29.21875 -56.25 -25.5625 -52.71875 C -21.90625 -49.195312 -18.9375 -44.863281 -16.65625 -39.71875 Z M -16.65625 -39.71875 "/></g></g></g><g fill="#000000" fill-opacity="1"><g transform="translate(141.547647, 474.95113)"><g><path d="M -48.484375 -8.328125 C -51.941406 -9.296875 -54.84375 -11.238281 -57.1875 -14.15625 C -59.539062 -17.070312 -61.25 -20.875 -62.3125 -25.5625 L -52.984375 -27.6875 C -52.921875 -27.132812 -52.785156 -26.390625 -52.578125 -25.453125 C -51.390625 -20.234375 -48.898438 -16.484375 -45.109375 -14.203125 C -41.328125 -11.929688 -36.554688 -11.453125 -30.796875 -12.765625 L -4.265625 -18.78125 L -2.078125 -9.140625 L -55.3125 2.9375 L -57.40625 -6.3125 Z M -48.484375 -8.328125 "/></g></g></g><g fill="#000000" fill-opacity="1"><g transform="translate(132.099164, 439.741988)"><g><path d="M -29.828125 -57.3125 C -29.078125 -57.351562 -28.082031 -57.335938 -26.84375 -57.265625 L -24.671875 -13.03125 C -19.910156 -13.875 -16.15625 -16.164062 -13.40625 -19.90625 C -10.65625 -23.65625 -9.414062 -28.207031 -9.6875 -33.5625 C -10 -40.082031 -12.453125 -45.21875 -17.046875 -48.96875 L -10.921875 -54.75 C -7.941406 -52.425781 -5.601562 -49.460938 -3.90625 -45.859375 C -2.207031 -42.265625 -1.25 -38.203125 -1.03125 -33.671875 C -0.75 -27.910156 -1.679688 -22.742188 -3.828125 -18.171875 C -5.972656 -13.597656 -9.113281 -9.988281 -13.25 -7.34375 C -17.394531 -4.707031 -22.140625 -3.253906 -27.484375 -2.984375 C -32.765625 -2.722656 -37.585938 -3.671875 -41.953125 -5.828125 C -46.316406 -7.984375 -49.785156 -11.078125 -52.359375 -15.109375 C -54.929688 -19.148438 -56.347656 -23.78125 -56.609375 -29 C -56.859375 -34.207031 -55.898438 -38.90625 -53.734375 -43.09375 C -51.566406 -47.289062 -48.410156 -50.640625 -44.265625 -53.140625 C -40.128906 -55.648438 -35.316406 -57.039062 -29.828125 -57.3125 Z M -48.265625 -29.40625 C -48.023438 -24.664062 -46.382812 -20.769531 -43.34375 -17.71875 C -40.3125 -14.675781 -36.457031 -12.992188 -31.78125 -12.671875 L -33.484375 -47.640625 C -38.054688 -46.878906 -41.71875 -44.832031 -44.46875 -41.5 C -47.226562 -38.164062 -48.492188 -34.132812 -48.265625 -29.40625 Z M -48.265625 -29.40625 "/></g></g></g><g fill="#000000" fill-opacity="1"><g transform="translate(128.702757, 383.696689)"><g><path d="M -49.859375 -37.515625 C -48.671875 -44.984375 -45.929688 -50.410156 -41.640625 -53.796875 C -37.347656 -57.179688 -31.578125 -58.296875 -24.328125 -57.140625 L 8.234375 -51.984375 L 6.765625 -42.734375 L -0.359375 -43.859375 C 1.898438 -41.835938 3.453125 -39.210938 4.296875 -35.984375 C 5.148438 -32.753906 5.25 -29.070312 4.59375 -24.9375 C 3.632812 -18.894531 1.410156 -14.289062 -2.078125 -11.125 C -5.578125 -7.957031 -9.703125 -6.753906 -14.453125 -7.515625 C -19.191406 -8.265625 -22.726562 -10.597656 -25.0625 -14.515625 C -27.40625 -18.429688 -27.984375 -24.15625 -26.796875 -31.6875 L -24.34375 -47.140625 L -26.28125 -47.4375 C -30.488281 -48.101562 -33.898438 -47.390625 -36.515625 -45.296875 C -39.140625 -43.210938 -40.828125 -39.800781 -41.578125 -35.0625 C -42.085938 -31.875 -42.0625 -28.671875 -41.5 -25.453125 C -40.9375 -22.234375 -39.9375 -19.429688 -38.5 -17.046875 L -46.46875 -14.15625 C -48.269531 -17.28125 -49.457031 -20.867188 -50.03125 -24.921875 C -50.601562 -28.972656 -50.546875 -33.171875 -49.859375 -37.515625 Z M -2.6875 -27.75 C -2.09375 -31.476562 -2.410156 -34.832031 -3.640625 -37.8125 C -4.867188 -40.789062 -6.921875 -43.128906 -9.796875 -44.828125 L -17.328125 -46.03125 L -19.71875 -30.96875 C -21.019531 -22.695312 -18.882812 -18.117188 -13.3125 -17.234375 C -10.613281 -16.804688 -8.3125 -17.519531 -6.40625 -19.375 C -4.507812 -21.226562 -3.269531 -24.019531 -2.6875 -27.75 Z M -2.6875 -27.75 "/></g></g></g><g fill="#000000" fill-opacity="1"><g transform="translate(137.724495, 328.734522)"><g><path d="M 9.953125 -38.953125 C 10.648438 -37.179688 10.960938 -35.179688 10.890625 -32.953125 C 10.828125 -30.722656 10.429688 -28.539062 9.703125 -26.40625 C 7.921875 -21.207031 5.140625 -17.65625 1.359375 -15.75 C -2.410156 -13.851562 -6.894531 -13.789062 -12.09375 -15.5625 L -40.453125 -25.265625 L -43.453125 -16.5 L -51.15625 -19.140625 L -48.15625 -27.90625 L -59.46875 -31.78125 L -56.265625 -41.140625 L -44.953125 -37.265625 L -39.890625 -52.078125 L -32.1875 -49.4375 L -37.25 -34.625 L -9.28125 -25.0625 C -6.488281 -24.101562 -4.101562 -24.066406 -2.125 -24.953125 C -0.144531 -25.835938 1.285156 -27.578125 2.171875 -30.171875 C 3.148438 -33.046875 3.164062 -35.765625 2.21875 -38.328125 Z M 9.953125 -38.953125 "/></g></g></g><g fill="#000000" fill-opacity="1"><g transform="translate(148.311154, 293.449765)"><g><path d="M 4.75 -64.453125 C 5.40625 -64.085938 6.242188 -63.539062 7.265625 -62.8125 L -14.140625 -24.046875 C -9.640625 -22.265625 -5.238281 -22.242188 -0.9375 -23.984375 C 3.363281 -25.722656 6.8125 -28.941406 9.40625 -33.640625 C 12.550781 -39.347656 13.164062 -45.003906 11.25 -50.609375 L 19.484375 -52.328125 C 20.804688 -48.765625 21.238281 -45.007812 20.78125 -41.0625 C 20.332031 -37.113281 19.015625 -33.15625 16.828125 -29.1875 C 14.035156 -24.132812 10.523438 -20.226562 6.296875 -17.46875 C 2.066406 -14.707031 -2.5 -13.285156 -7.40625 -13.203125 C -12.3125 -13.128906 -17.109375 -14.382812 -21.796875 -16.96875 C -26.429688 -19.53125 -30.035156 -22.878906 -32.609375 -27.015625 C -35.191406 -31.148438 -36.515625 -35.609375 -36.578125 -40.390625 C -36.648438 -45.171875 -35.425781 -49.847656 -32.90625 -54.421875 C -30.382812 -58.992188 -27.097656 -62.492188 -23.046875 -64.921875 C -18.992188 -67.347656 -14.550781 -68.539062 -9.71875 -68.5 C -4.882812 -68.457031 -0.0625 -67.109375 4.75 -64.453125 Z M -25.59375 -50.390625 C -27.882812 -46.242188 -28.539062 -42.070312 -27.5625 -37.875 C -26.582031 -33.6875 -24.179688 -30.222656 -20.359375 -27.484375 L -3.4375 -58.125 C -7.726562 -59.882812 -11.921875 -60.070312 -16.015625 -58.6875 C -20.109375 -57.300781 -23.300781 -54.535156 -25.59375 -50.390625 Z M -25.59375 -50.390625 "/></g></g></g><g fill="#000000" fill-opacity="1"><g transform="translate(177.084185, 243.274326)"><g/></g></g><g fill="#000000" fill-opacity="1"><g transform="translate(191.914782, 223.711671)"><g/></g></g><g fill="#000000" fill-opacity="1"><g transform="translate(205.997661, 205.882651)"><g><path d="M 25.40625 -19.1875 C 21.164062 -15.8125 16.546875 -13.207031 11.546875 -11.375 C 6.554688 -9.539062 2.097656 -8.769531 -1.828125 -9.0625 L -3.859375 -17.734375 C -0.171875 -17.515625 3.828125 -18.132812 8.140625 -19.59375 C 12.460938 -21.0625 16.394531 -23.207031 19.9375 -26.03125 C 24.613281 -29.757812 27.472656 -33.335938 28.515625 -36.765625 C 29.566406 -40.191406 29.046875 -43.21875 26.953125 -45.84375 C 25.410156 -47.769531 23.523438 -48.835938 21.296875 -49.046875 C 19.078125 -49.253906 16.78125 -48.941406 14.40625 -48.109375 C 12.039062 -47.273438 8.851562 -45.914062 4.84375 -44.03125 C -0.21875 -41.65625 -4.457031 -39.941406 -7.875 -38.890625 C -11.300781 -37.847656 -14.785156 -37.644531 -18.328125 -38.28125 C -21.867188 -38.925781 -25.070312 -41.046875 -27.9375 -44.640625 C -30.332031 -47.648438 -31.703125 -50.992188 -32.046875 -54.671875 C -32.390625 -58.347656 -31.523438 -62.195312 -29.453125 -66.21875 C -27.390625 -70.25 -23.96875 -74.164062 -19.1875 -77.96875 C -15.851562 -80.625 -12.234375 -82.804688 -8.328125 -84.515625 C -4.429688 -86.222656 -0.679688 -87.191406 2.921875 -87.421875 L 5.390625 -78.859375 C 1.835938 -78.472656 -1.585938 -77.597656 -4.890625 -76.234375 C -8.191406 -74.878906 -11.132812 -73.171875 -13.71875 -71.109375 C -18.28125 -67.472656 -21.039062 -63.914062 -22 -60.4375 C -22.957031 -56.957031 -22.390625 -53.898438 -20.296875 -51.265625 C -18.753906 -49.328125 -16.859375 -48.269531 -14.609375 -48.09375 C -12.359375 -47.914062 -10.007812 -48.25 -7.5625 -49.09375 C -5.125 -49.945312 -1.96875 -51.296875 1.90625 -53.140625 C 6.96875 -55.503906 11.191406 -57.207031 14.578125 -58.25 C 17.960938 -59.289062 21.414062 -59.5 24.9375 -58.875 C 28.46875 -58.25 31.644531 -56.164062 34.46875 -52.625 C 36.820312 -49.675781 38.164062 -46.332031 38.5 -42.59375 C 38.832031 -38.863281 37.925781 -34.984375 35.78125 -30.953125 C 33.644531 -26.921875 30.1875 -23 25.40625 -19.1875 Z M 25.40625 -19.1875 "/></g></g></g><g fill="#000000" fill-opacity="1"><g transform="translate(249.926816, 169.798732)"><g><path d="M 29.65625 -13.953125 C 24.789062 -11.546875 19.882812 -10.460938 14.9375 -10.703125 C 9.988281 -10.941406 5.484375 -12.414062 1.421875 -15.125 C -2.628906 -17.832031 -5.84375 -21.585938 -8.21875 -26.390625 C -10.582031 -31.191406 -11.601562 -36.023438 -11.28125 -40.890625 C -10.96875 -45.753906 -9.394531 -50.207031 -6.5625 -54.25 C -3.738281 -58.289062 0.101562 -61.515625 4.96875 -63.921875 C 9.820312 -66.316406 14.703125 -67.398438 19.609375 -67.171875 C 24.515625 -66.953125 28.992188 -65.488281 33.046875 -62.78125 C 37.109375 -60.082031 40.320312 -56.332031 42.6875 -51.53125 C 45.0625 -46.726562 46.085938 -41.890625 45.765625 -37.015625 C 45.453125 -32.148438 43.898438 -27.6875 41.109375 -23.625 C 38.328125 -19.570312 34.507812 -16.347656 29.65625 -13.953125 Z M 25.8125 -21.71875 C 28.945312 -23.257812 31.40625 -25.367188 33.1875 -28.046875 C 34.96875 -30.734375 35.921875 -33.734375 36.046875 -37.046875 C 36.171875 -40.367188 35.394531 -43.71875 33.71875 -47.09375 C 32.050781 -50.488281 29.863281 -53.144531 27.15625 -55.0625 C 24.445312 -56.976562 21.492188 -58.023438 18.296875 -58.203125 C 15.097656 -58.390625 11.929688 -57.710938 8.796875 -56.171875 C 5.648438 -54.609375 3.179688 -52.503906 1.390625 -49.859375 C -0.398438 -47.210938 -1.375 -44.222656 -1.53125 -40.890625 C -1.6875 -37.566406 -0.929688 -34.207031 0.734375 -30.8125 C 2.410156 -27.4375 4.617188 -24.796875 7.359375 -22.890625 C 10.097656 -20.984375 13.070312 -19.921875 16.28125 -19.703125 C 19.488281 -19.484375 22.664062 -20.15625 25.8125 -21.71875 Z M 25.8125 -21.71875 "/></g></g></g><g fill="#000000" fill-opacity="1"><g transform="translate(298.685112, 140.76045)"><g><path d="M 67.203125 -67.484375 C 73.960938 -68.648438 79.660156 -67.609375 84.296875 -64.359375 C 88.941406 -61.117188 91.925781 -55.644531 93.25 -47.9375 L 98.578125 -16.96875 L 88.828125 -15.28125 L 83.6875 -45.125 C 82.789062 -50.34375 80.914062 -54.0625 78.0625 -56.28125 C 75.207031 -58.507812 71.546875 -59.238281 67.078125 -58.46875 C 62.128906 -57.613281 58.46875 -55.394531 56.09375 -51.8125 C 53.71875 -48.238281 53.023438 -43.578125 54.015625 -37.828125 L 58.78125 -10.109375 L 49.03125 -8.4375 L 43.890625 -38.28125 C 42.992188 -43.5 41.117188 -47.21875 38.265625 -49.4375 C 35.410156 -51.664062 31.75 -52.394531 27.28125 -51.625 C 22.34375 -50.769531 18.679688 -48.550781 16.296875 -44.96875 C 13.921875 -41.394531 13.226562 -36.734375 14.21875 -30.984375 L 18.984375 -3.265625 L 9.234375 -1.59375 L -0.03125 -55.390625 L 9.328125 -57 L 10.71875 -48.984375 C 12.195312 -52.097656 14.398438 -54.65625 17.328125 -56.65625 C 20.253906 -58.65625 23.75 -60.003906 27.8125 -60.703125 C 32.007812 -61.429688 35.878906 -61.226562 39.421875 -60.09375 C 42.960938 -58.96875 45.882812 -56.925781 48.1875 -53.96875 C 49.695312 -57.425781 52.109375 -60.347656 55.421875 -62.734375 C 58.734375 -65.117188 62.660156 -66.703125 67.203125 -67.484375 Z M 67.203125 -67.484375 "/></g></g></g><g fill="#000000" fill-opacity="1"><g transform="translate(396.817293, 125.800906)"><g><path d="M 61.40625 -20.140625 C 61.320312 -19.390625 61.144531 -18.40625 60.875 -17.1875 L 16.859375 -22.21875 C 16.921875 -17.382812 18.570312 -13.3125 21.8125 -10 C 25.0625 -6.6875 29.351562 -4.722656 34.6875 -4.109375 C 41.164062 -3.367188 46.628906 -4.957031 51.078125 -8.875 L 55.796875 -1.90625 C 53.023438 0.675781 49.722656 2.507812 45.890625 3.59375 C 42.054688 4.6875 37.890625 4.972656 33.390625 4.453125 C 27.660156 3.796875 22.710938 2.039062 18.546875 -0.8125 C 14.378906 -3.675781 11.328125 -7.363281 9.390625 -11.875 C 7.453125 -16.382812 6.789062 -21.300781 7.40625 -26.625 C 8.007812 -31.875 9.726562 -36.476562 12.5625 -40.4375 C 15.394531 -44.40625 19.007812 -47.328125 23.40625 -49.203125 C 27.8125 -51.085938 32.609375 -51.734375 37.796875 -51.140625 C 42.984375 -50.546875 47.46875 -48.835938 51.25 -46.015625 C 55.03125 -43.203125 57.828125 -39.550781 59.640625 -35.0625 C 61.453125 -30.570312 62.039062 -25.597656 61.40625 -20.140625 Z M 36.84375 -42.859375 C 32.132812 -43.398438 28.03125 -42.414062 24.53125 -39.90625 C 21.03125 -37.394531 18.738281 -33.851562 17.65625 -29.28125 L 52.453125 -25.3125 C 52.441406 -29.9375 51.015625 -33.878906 48.171875 -37.140625 C 45.328125 -40.410156 41.550781 -42.316406 36.84375 -42.859375 Z M 36.84375 -42.859375 "/></g></g></g><g fill="#000000" fill-opacity="1"><g transform="translate(453.460986, 132.657929)"><g><path d="M 39.328125 8.359375 C 37.578125 9.128906 35.585938 9.523438 33.359375 9.546875 C 31.140625 9.566406 28.945312 9.253906 26.78125 8.609375 C 21.507812 7.035156 17.84375 4.40625 15.78125 0.71875 C 13.726562 -2.96875 13.488281 -7.445312 15.0625 -12.71875 L 23.59375 -41.453125 L 14.71875 -44.09375 L 17.03125 -51.890625 L 25.90625 -49.25 L 29.3125 -60.703125 L 38.796875 -57.890625 L 35.390625 -46.4375 L 50.40625 -41.96875 L 48.09375 -34.171875 L 33.078125 -38.640625 L 24.65625 -10.296875 C 23.8125 -7.472656 23.875 -5.09375 24.84375 -3.15625 C 25.8125 -1.21875 27.609375 0.140625 30.234375 0.921875 C 33.140625 1.785156 35.859375 1.695312 38.390625 0.65625 Z M 39.328125 8.359375 "/></g></g></g><g fill="#000000" fill-opacity="1"><g transform="translate(488.962416, 141.262886)"><g><path d="M 59.46875 -31.359375 C 65.644531 -28.179688 69.628906 -23.867188 71.421875 -18.421875 C 73.222656 -12.984375 72.347656 -6.816406 68.796875 0.078125 L 54.40625 28.015625 L 45.609375 23.484375 L 59.46875 -3.4375 C 61.894531 -8.144531 62.585938 -12.269531 61.546875 -15.8125 C 60.515625 -19.363281 57.894531 -22.21875 53.6875 -24.375 C 48.914062 -26.832031 44.441406 -27.378906 40.265625 -26.015625 C 36.085938 -24.648438 32.664062 -21.375 30 -16.1875 L 17.125 8.8125 L 8.328125 4.296875 L 43.3125 -63.65625 L 52.109375 -59.140625 L 38.578125 -32.859375 C 41.609375 -34.222656 44.929688 -34.785156 48.546875 -34.546875 C 52.160156 -34.304688 55.800781 -33.242188 59.46875 -31.359375 Z M 59.46875 -31.359375 "/></g></g></g><g fill="#000000" fill-opacity="1"><g transform="translate(545.713982, 171.865259)"><g><path d="M 40.09375 -38.21875 L 48.03125 -32.328125 L 15.46875 11.484375 L 7.53125 5.59375 Z M 50.3125 -43.734375 C 48.769531 -44.878906 47.859375 -46.320312 47.578125 -48.0625 C 47.304688 -49.8125 47.703125 -51.40625 48.765625 -52.84375 C 49.828125 -54.269531 51.242188 -55.113281 53.015625 -55.375 C 54.796875 -55.644531 56.457031 -55.207031 58 -54.0625 C 59.550781 -52.90625 60.476562 -51.46875 60.78125 -49.75 C 61.082031 -48.03125 60.703125 -46.453125 59.640625 -45.015625 C 58.535156 -43.523438 57.09375 -42.648438 55.3125 -42.390625 C 53.53125 -42.128906 51.863281 -42.578125 50.3125 -43.734375 Z M 50.3125 -43.734375 "/></g></g></g><g fill="#000000" fill-opacity="1"><g transform="translate(565.715025, 184.061332)"><g><path d="M 66.40625 -10.5625 C 71.226562 -5.570312 73.613281 -0.21875 73.5625 5.5 C 73.507812 11.21875 70.691406 16.773438 65.109375 22.171875 L 42.515625 44 L 35.640625 36.890625 L 57.421875 15.859375 C 61.222656 12.179688 63.203125 8.5 63.359375 4.8125 C 63.523438 1.125 61.960938 -2.414062 58.671875 -5.8125 C 54.953125 -9.675781 50.894531 -11.632812 46.5 -11.6875 C 42.101562 -11.738281 37.8125 -9.738281 33.625 -5.6875 L 13.390625 13.859375 L 6.515625 6.75 L 45.78125 -31.1875 L 52.375 -24.375 L 46.453125 -18.640625 C 49.847656 -19.171875 53.269531 -18.738281 56.71875 -17.34375 C 60.164062 -15.945312 63.394531 -13.6875 66.40625 -10.5625 Z M 66.40625 -10.5625 "/></g></g></g><g fill="#000000" fill-opacity="1"><g transform="translate(609.782372, 228.296209)"><g><path d="M 78.359375 25.203125 L 37.765625 49.234375 C 29.546875 54.097656 22.265625 55.65625 15.921875 53.90625 C 9.578125 52.15625 4.007812 47.234375 -0.78125 39.140625 C -3.40625 34.703125 -5.300781 30.113281 -6.46875 25.375 C -7.632812 20.632812 -7.832031 16.363281 -7.0625 12.5625 L 1.921875 12.75 C 1.328125 16.050781 1.4375 19.632812 2.25 23.5 C 3.0625 27.375 4.484375 31.03125 6.515625 34.46875 C 9.765625 39.957031 13.46875 43.242188 17.625 44.328125 C 21.78125 45.421875 26.519531 44.394531 31.84375 41.25 L 35.5625 39.046875 C 31.945312 38.484375 28.664062 37.09375 25.71875 34.875 C 22.78125 32.664062 20.296875 29.84375 18.265625 26.40625 C 15.609375 21.914062 14.164062 17.285156 13.9375 12.515625 C 13.707031 7.742188 14.707031 3.300781 16.9375 -0.8125 C 19.164062 -4.925781 22.5 -8.296875 26.9375 -10.921875 C 31.363281 -13.546875 35.914062 -14.847656 40.59375 -14.828125 C 45.28125 -14.804688 49.644531 -13.535156 53.6875 -11.015625 C 57.726562 -8.503906 61.078125 -5.003906 63.734375 -0.515625 C 65.835938 3.035156 67.140625 6.71875 67.640625 10.53125 C 68.148438 14.34375 67.710938 17.976562 66.328125 21.4375 L 73.59375 17.140625 Z M 26.296875 22.984375 C 28.117188 26.054688 30.40625 28.429688 33.15625 30.109375 C 35.90625 31.796875 38.859375 32.644531 42.015625 32.65625 C 45.171875 32.664062 48.226562 31.796875 51.1875 30.046875 C 55.738281 27.359375 58.519531 23.671875 59.53125 18.984375 C 60.550781 14.304688 59.660156 9.609375 56.859375 4.890625 C 54.023438 0.0976562 50.316406 -2.972656 45.734375 -4.328125 C 41.148438 -5.679688 36.582031 -5.015625 32.03125 -2.328125 C 29.070312 -0.578125 26.832031 1.679688 25.3125 4.453125 C 23.800781 7.222656 23.125 10.222656 23.28125 13.453125 C 23.445312 16.679688 24.453125 19.859375 26.296875 22.984375 Z M 26.296875 22.984375 "/></g></g></g><g fill="#000000" fill-opacity="1"><g transform="translate(641.967918, 285.230691)"><g/></g></g><g fill="#000000" fill-opacity="1"><g transform="translate(651.004398, 308.055781)"><g/></g></g><g fill="#000000" fill-opacity="1"><g transform="translate(658.790834, 329.567059)"><g><path d="M 65.9375 16.515625 L 62.640625 -8 L 71.515625 -9.1875 L 79.453125 49.9375 L 70.578125 51.125 L 67.296875 26.609375 L 4.703125 35.015625 L 3.34375 24.921875 Z M 65.9375 16.515625 "/></g></g></g><g fill="#000000" fill-opacity="1"><g transform="translate(666.893008, 382.494571)"><g><path d="M -3.078125 32.625 C -2.671875 27.21875 -1.109375 22.445312 1.609375 18.3125 C 4.335938 14.175781 7.898438 11.046875 12.296875 8.921875 C 16.691406 6.804688 21.554688 5.953125 26.890625 6.359375 C 32.234375 6.753906 36.914062 8.328125 40.9375 11.078125 C 44.96875 13.828125 48.003906 17.445312 50.046875 21.9375 C 52.085938 26.4375 52.90625 31.390625 52.5 36.796875 C 52.09375 42.203125 50.546875 46.957031 47.859375 51.0625 C 45.179688 55.164062 41.644531 58.273438 37.25 60.390625 C 32.863281 62.503906 28 63.363281 22.65625 62.96875 C 17.320312 62.5625 12.640625 60.984375 8.609375 58.234375 C 4.578125 55.492188 1.519531 51.890625 -0.5625 47.421875 C -2.644531 42.960938 -3.484375 38.03125 -3.078125 32.625 Z M 5.5625 33.265625 C 5.300781 36.753906 5.867188 39.945312 7.265625 42.84375 C 8.671875 45.75 10.769531 48.09375 13.5625 49.875 C 16.363281 51.664062 19.644531 52.707031 23.40625 53 C 27.175781 53.28125 30.570312 52.742188 33.59375 51.390625 C 36.625 50.035156 39.03125 48.023438 40.8125 45.359375 C 42.59375 42.703125 43.613281 39.628906 43.875 36.140625 C 44.132812 32.640625 43.582031 29.445312 42.21875 26.5625 C 40.851562 23.675781 38.773438 21.316406 35.984375 19.484375 C 33.203125 17.648438 29.925781 16.59375 26.15625 16.3125 C 22.394531 16.019531 18.992188 16.570312 15.953125 17.96875 C 12.921875 19.375 10.492188 21.398438 8.671875 24.046875 C 6.859375 26.691406 5.820312 29.765625 5.5625 33.265625 Z M 5.5625 33.265625 "/></g></g></g><g fill="#000000" fill-opacity="1"><g transform="translate(663.720057, 440.382667)"><g><path d="M 33.90625 75.015625 L -11.140625 61.046875 C -20.265625 58.210938 -26.304688 53.851562 -29.265625 47.96875 C -32.234375 42.09375 -32.328125 34.660156 -29.546875 25.671875 C -28.015625 20.753906 -25.882812 16.273438 -23.15625 12.234375 C -20.425781 8.191406 -17.390625 5.179688 -14.046875 3.203125 L -8.171875 9.984375 C -11.023438 11.765625 -13.609375 14.25 -15.921875 17.4375 C -18.242188 20.632812 -20 24.132812 -21.1875 27.9375 C -23.070312 34.039062 -23.023438 39 -21.046875 42.8125 C -19.066406 46.632812 -15.117188 49.460938 -9.203125 51.296875 L -5.078125 52.578125 C -7.085938 49.515625 -8.257812 46.148438 -8.59375 42.484375 C -8.925781 38.816406 -8.503906 35.078125 -7.328125 31.265625 C -5.785156 26.285156 -3.320312 22.109375 0.0625 18.734375 C 3.445312 15.359375 7.414062 13.117188 11.96875 12.015625 C 16.519531 10.910156 21.253906 11.117188 26.171875 12.640625 C 31.085938 14.171875 35.109375 16.675781 38.234375 20.15625 C 41.359375 23.632812 43.34375 27.71875 44.1875 32.40625 C 45.039062 37.09375 44.695312 41.925781 43.15625 46.90625 C 41.9375 50.84375 40.082031 54.273438 37.59375 57.203125 C 35.101562 60.140625 32.113281 62.257812 28.625 63.5625 L 36.671875 66.0625 Z M 0.609375 34.921875 C -0.441406 38.328125 -0.664062 41.613281 -0.0625 44.78125 C 0.53125 47.957031 1.878906 50.71875 3.984375 53.0625 C 6.097656 55.40625 8.796875 57.082031 12.078125 58.09375 C 17.128906 59.664062 21.726562 59.257812 25.875 56.875 C 30.03125 54.488281 32.921875 50.675781 34.546875 45.4375 C 36.203125 40.125 35.988281 35.3125 33.90625 31 C 31.832031 26.6875 28.269531 23.742188 23.21875 22.171875 C 19.9375 21.160156 16.757812 21.023438 13.6875 21.765625 C 10.625 22.503906 7.945312 24.007812 5.65625 26.28125 C 3.375 28.5625 1.691406 31.441406 0.609375 34.921875 Z M 0.609375 34.921875 "/></g></g></g><g fill="#000000" fill-opacity="1"><g transform="translate(645.240495, 501.293638)"><g><path d="M -5.90625 64.359375 C -6.5625 63.984375 -7.394531 63.425781 -8.40625 62.6875 L 13.703125 24.3125 C 9.234375 22.4375 4.832031 22.332031 0.5 24 C -3.832031 25.664062 -7.335938 28.828125 -10.015625 33.484375 C -13.265625 39.128906 -13.976562 44.769531 -12.15625 50.40625 L -20.421875 51.953125 C -21.671875 48.378906 -22.035156 44.617188 -21.515625 40.671875 C -21.003906 36.734375 -19.617188 32.800781 -17.359375 28.875 C -14.472656 23.875 -10.890625 20.03125 -6.609375 17.34375 C -2.328125 14.664062 2.265625 13.332031 7.171875 13.34375 C 12.078125 13.351562 16.851562 14.695312 21.5 17.375 C 26.082031 20.007812 29.625 23.414062 32.125 27.59375 C 34.632812 31.769531 35.875 36.25 35.84375 41.03125 C 35.820312 45.820312 34.507812 50.476562 31.90625 55 C 29.300781 59.519531 25.953125 62.957031 21.859375 65.3125 C 17.773438 67.675781 13.316406 68.789062 8.484375 68.65625 C 3.648438 68.53125 -1.144531 67.097656 -5.90625 64.359375 Z M 24.6875 50.84375 C 27.0625 46.738281 27.789062 42.582031 26.875 38.375 C 25.96875 34.164062 23.628906 30.660156 19.859375 27.859375 L 2.390625 58.203125 C 6.640625 60.023438 10.828125 60.28125 14.953125 58.96875 C 19.078125 57.65625 22.320312 54.945312 24.6875 50.84375 Z M 24.6875 50.84375 "/></g></g></g><g fill="#000000" fill-opacity="1"><g transform="translate(616.444558, 550.555495)"><g><path d="M -23.296875 32.765625 C -23.304688 30.867188 -22.878906 28.890625 -22.015625 26.828125 C -21.148438 24.773438 -19.992188 22.882812 -18.546875 21.15625 C -15.015625 16.9375 -11.144531 14.613281 -6.9375 14.1875 C -2.726562 13.769531 1.484375 15.332031 5.703125 18.875 L 28.671875 38.109375 L 34.609375 31.015625 L 40.84375 36.25 L 34.90625 43.34375 L 44.078125 51.015625 L 37.71875 58.609375 L 28.546875 50.9375 L 18.5 62.9375 L 12.265625 57.703125 L 22.3125 45.703125 L -0.34375 26.71875 C -2.601562 24.820312 -4.8125 23.929688 -6.96875 24.046875 C -9.132812 24.160156 -11.097656 25.269531 -12.859375 27.375 C -14.804688 29.695312 -15.804688 32.222656 -15.859375 34.953125 Z M -23.296875 32.765625 "/></g></g></g><g fill="#000000" fill-opacity="1"><g transform="translate(594.445273, 579.718557)"><g><path d="M 5.140625 67.046875 C -0.222656 71.441406 -5.753906 73.378906 -11.453125 72.859375 C -17.148438 72.347656 -22.460938 69.09375 -27.390625 63.09375 L -47.3125 38.796875 L -39.671875 32.53125 L -20.46875 55.953125 C -17.113281 60.035156 -13.601562 62.304688 -9.9375 62.765625 C -6.269531 63.222656 -2.609375 61.953125 1.046875 58.953125 C 5.191406 55.554688 7.46875 51.671875 7.875 47.296875 C 8.28125 42.921875 6.632812 38.476562 2.9375 33.96875 L -14.890625 12.21875 L -7.25 5.9375 L 41.21875 65.046875 L 33.578125 71.328125 L 14.828125 48.46875 C 14.878906 51.78125 14.070312 55.050781 12.40625 58.28125 C 10.75 61.507812 8.328125 64.429688 5.140625 67.046875 Z M 5.140625 67.046875 "/></g></g></g><g fill="#000000" fill-opacity="1"><g transform="translate(546.173011, 619.854234)"><g><path d="M -40.296875 50.5 C -40.640625 49.832031 -41.03125 48.914062 -41.46875 47.75 L -1.90625 27.828125 C -4.613281 23.816406 -8.234375 21.316406 -12.765625 20.328125 C -17.304688 19.335938 -21.96875 20.050781 -26.75 22.46875 C -32.582031 25.394531 -36.285156 29.71875 -37.859375 35.4375 L -45.609375 32.1875 C -44.703125 28.507812 -42.945312 25.164062 -40.34375 22.15625 C -37.738281 19.144531 -34.414062 16.625 -30.375 14.59375 C -25.21875 11.988281 -20.109375 10.742188 -15.046875 10.859375 C -9.992188 10.972656 -5.421875 12.382812 -1.328125 15.09375 C 2.765625 17.800781 6.015625 21.546875 8.421875 26.328125 C 10.796875 31.054688 11.878906 35.851562 11.671875 40.71875 C 11.472656 45.582031 10.046875 50.003906 7.390625 53.984375 C 4.742188 57.972656 1.09375 61.140625 -3.5625 63.484375 C -8.21875 65.835938 -12.898438 66.875 -17.609375 66.59375 C -22.328125 66.3125 -26.671875 64.785156 -30.640625 62.015625 C -34.609375 59.253906 -37.828125 55.414062 -40.296875 50.5 Z M -7.3125 56.03125 C -3.082031 53.90625 -0.191406 50.832031 1.359375 46.8125 C 2.921875 42.800781 2.894531 38.585938 1.28125 34.171875 L -29.984375 49.921875 C -27.429688 53.796875 -24.070312 56.316406 -19.90625 57.484375 C -15.738281 58.648438 -11.539062 58.164062 -7.3125 56.03125 Z M -7.3125 56.03125 "/></g></g></g><g fill="#000000" fill-opacity="1"><g transform="translate(495.025598, 645.178972)"><g><path d="M -4.96875 48.953125 C -5.695312 52.460938 -7.429688 55.488281 -10.171875 58.03125 C -12.921875 60.570312 -16.601562 62.535156 -21.21875 63.921875 L -23.96875 54.75 C -23.414062 54.664062 -22.679688 54.488281 -21.765625 54.21875 C -16.640625 52.664062 -13.070312 49.921875 -11.0625 45.984375 C -9.0625 42.046875 -8.910156 37.25 -10.609375 31.59375 L -18.453125 5.546875 L -8.984375 2.703125 L 6.75 54.984375 L -2.328125 57.71875 Z M -4.96875 48.953125 "/></g></g></g><g fill="#000000" fill-opacity="1"><g transform="translate(458.092872, 655.972677)"><g><path d="M -11.65625 1.53125 C -9.757812 1.1875 -8.015625 1.546875 -6.421875 2.609375 C -4.828125 3.671875 -3.84375 5.210938 -3.46875 7.234375 C -3.101562 9.203125 -3.472656 10.96875 -4.578125 12.53125 C -5.679688 14.101562 -7.179688 15.0625 -9.078125 15.40625 C -10.960938 15.757812 -12.664062 15.414062 -14.1875 14.375 C -15.71875 13.332031 -16.671875 11.796875 -17.046875 9.765625 C -17.421875 7.742188 -17.070312 5.953125 -16 4.390625 C -14.925781 2.828125 -13.476562 1.875 -11.65625 1.53125 Z M -11.65625 1.53125 "/></g></g></g><g fill="#000000" fill-opacity="1"><g transform="translate(438.006972, 659.924748)"><g/></g></g></svg>